<svg width="133" height="36" viewBox="0 0 133 36" fill="none" xmlns="http://www.w3.org/2000/svg">
<g clip-path="url(#clip0_49_414)">
<path d="M32.6564 12.3677C31.3442 11.6376 29.8423 11.2668 28.1928 11.2668C26.5433 11.2668 25.0414 11.6376 23.7292 12.3677C22.4208 13.0965 21.3835 14.1209 20.6466 15.4115C19.9084 16.7048 19.5342 18.1878 19.5342 19.8187C19.5342 21.4495 19.9084 22.9326 20.6466 24.2258C21.3835 25.5165 22.4208 26.5409 23.7292 27.2697C25.0414 27.9997 26.5433 28.3705 28.1928 28.3705C29.8423 28.3705 31.3442 27.9997 32.6564 27.2697C33.9648 26.5409 35.0021 25.5165 35.739 24.2258C36.4772 22.9326 36.8514 21.4495 36.8514 19.8187C36.8514 18.1878 36.4772 16.706 35.739 15.4115C35.0021 14.1209 33.9648 13.0965 32.6564 12.3677ZM31.3136 23.2333C30.5181 24.1328 29.4681 24.5889 28.1941 24.5889C26.92 24.5889 25.87 24.1328 25.0745 23.2333C24.2892 22.3452 23.8909 21.196 23.8909 19.8187C23.8909 18.4414 24.2892 17.2934 25.0758 16.4041C25.8713 15.5045 26.92 15.0484 28.1953 15.0484C29.4706 15.0484 30.5194 15.5045 31.3149 16.4041C32.1002 17.2934 32.4998 18.4414 32.4998 19.8187C32.4998 21.196 32.1015 22.344 31.3162 23.2333H31.3136Z" fill="#3E3A39"/>
<path d="M45.5882 5.16397L47.3268 0H43.8496L45.5882 5.16397Z" fill="#E20871"/>
<path d="M43.8495 6.024L41.8653 0.949219L39.2026 3.18656L43.8495 6.024Z" fill="#E20871"/>
<path d="M47.3267 6.024L49.3109 0.949219L51.9735 3.18656L47.3267 6.024Z" fill="#E20871"/>
<path d="M52.3273 12.3779C51.1321 11.6517 49.7499 11.2822 48.2201 11.2822C46.1314 11.2822 44.627 11.9409 43.6216 13.2953L43.0819 14.0228V13.1169C43.0819 11.7766 43.1074 8.36322 43.1137 7.52486C42.7243 7.3312 41.715 6.8292 40.7057 6.3272C40.0616 6.00612 39.4176 5.68632 38.934 5.44424C38.7927 5.37289 38.6641 5.30918 38.5547 5.25439C38.5547 5.84558 38.5547 6.75657 38.5547 7.95678V11.2198V22.8091V23.1391C38.5547 25.7345 38.5547 27.3577 38.5547 27.9833H43.0819V25.6465L43.6216 26.3741C44.627 27.7284 46.1314 28.3871 48.2201 28.3871C49.7499 28.3871 51.1321 28.0189 52.3273 27.2914C53.5224 26.5639 54.463 25.5421 55.1261 24.2527C55.7917 22.9569 56.1303 21.47 56.1303 19.834C56.1303 18.1981 55.793 16.7112 55.1261 15.4154C54.4642 14.126 53.5224 13.1042 52.3273 12.3767V12.3779ZM50.5479 23.2474C49.7614 24.1482 48.7075 24.6043 47.4131 24.6043C46.1187 24.6043 44.9987 24.1482 44.1943 23.2499C43.3976 22.3606 42.9941 21.2114 42.9941 19.834C42.9941 18.4567 43.3976 17.3075 44.1943 16.4182C44.9987 15.5199 46.0818 15.0638 47.4131 15.0638C48.7444 15.0638 49.7626 15.5199 50.5479 16.4207C51.3231 17.31 51.7163 18.458 51.7163 19.8328C51.7163 21.2075 51.3231 22.3568 50.5479 23.2448V23.2474Z" fill="#3E3A39"/>
<path d="M73.2197 12.3626C72.0245 11.6363 70.6423 11.2668 69.1124 11.2668C67.0238 11.2668 65.5194 11.9256 64.5139 13.2799L63.9743 14.0075V11.6707H59.4458V35.1934H63.9743V25.6324L64.5139 26.36C65.5194 27.7143 67.0238 28.3731 69.1124 28.3731C70.6423 28.3731 72.0245 28.0048 73.2197 27.2773C74.4148 26.5498 75.3554 25.528 76.0185 24.2386C76.6841 22.9428 77.0227 21.4559 77.0227 19.82C77.0227 18.184 76.6854 16.6971 76.0185 15.4013C75.3566 14.1119 74.4148 13.0901 73.2197 12.3626ZM71.4416 23.232C70.655 24.1328 69.6012 24.5889 68.3068 24.5889C67.0124 24.5889 65.8924 24.1328 65.088 23.2346C64.2912 22.3452 63.8877 21.196 63.8877 19.8187C63.8877 18.4414 64.2912 17.2921 65.088 16.4028C65.8924 15.5045 66.9755 15.0484 68.3068 15.0484C69.6381 15.0484 70.6563 15.5045 71.4416 16.4053C72.2167 17.2947 72.61 18.4426 72.61 19.8174C72.61 21.1922 72.2167 22.3414 71.4416 23.2295V23.232Z" fill="#E20871"/>
<path d="M91.1899 13.2799C90.1844 11.9256 88.68 11.2668 86.5914 11.2668C85.0602 11.2668 83.6793 11.6351 82.4842 12.3626C81.2903 13.0888 80.3485 14.1119 79.6854 15.4013C79.0197 16.6984 78.6812 18.1853 78.6812 19.82C78.6812 21.4546 79.0184 22.9428 79.6854 24.2386C80.3485 25.528 81.289 26.5498 82.4842 27.2773C83.6793 28.0036 85.0615 28.3731 86.5914 28.3731C88.68 28.3731 90.1844 27.7143 91.1899 26.36L91.7295 25.6324V27.9692H96.258V11.6707H91.7295V14.0075L91.1899 13.2799ZM91.8161 19.82C91.8161 21.1973 91.4126 22.3465 90.6159 23.2358C89.8115 24.1341 88.7283 24.5902 87.397 24.5902C86.0657 24.5902 85.0475 24.1341 84.2622 23.2333C83.4871 22.3452 83.0938 21.1973 83.0938 19.8212C83.0938 18.4452 83.4871 17.2972 84.2622 16.4079C85.0475 15.5071 86.1026 15.051 87.397 15.051C88.6914 15.051 89.8115 15.5071 90.6159 16.4053C91.4126 17.2947 91.8161 18.4439 91.8161 19.8212V19.82Z" fill="#E20871"/>
<path d="M110.769 12.132C109.822 11.5586 108.712 11.2668 107.467 11.2668C105.456 11.2668 103.989 11.9256 102.983 13.2799L102.444 14.0075V11.6707H97.915V27.9692H102.444V19.5893C102.444 18.2209 102.755 17.1214 103.37 16.3212C104.003 15.4969 104.878 15.079 105.97 15.079C107.062 15.079 107.848 15.4638 108.414 16.2231C108.96 16.9558 109.238 18.0107 109.238 19.3587V27.9692H113.766V18.4936C113.766 17.0093 113.5 15.7046 112.974 14.6152C112.455 13.5399 111.713 12.704 110.77 12.132H110.769Z" fill="#E20871"/>
<path d="M128.472 11.6707V14.0075L127.932 13.2799C126.927 11.9256 125.422 11.2668 123.334 11.2668C121.802 11.2668 120.419 11.6312 119.225 12.3486C118.031 13.0659 117.089 14.0686 116.426 15.3313C115.761 16.599 115.423 18.0604 115.423 19.676C115.423 21.2915 115.761 22.6905 116.425 23.9481C117.087 25.1992 118.027 26.188 119.221 26.8862C120.418 27.5857 121.801 27.9411 123.334 27.9411C125.422 27.9411 126.927 27.2824 127.932 25.928L128.472 25.2005V28.6508C128.472 29.7873 128.112 30.548 127.401 31.2385C126.696 31.924 125.757 32.2718 124.61 32.2744C123.465 32.2718 122.525 31.924 121.819 31.2385C121.304 30.7378 120.976 30.1122 120.833 29.3732H116.267C116.382 30.4817 116.724 31.4997 117.298 32.4056C117.663 32.9815 118.104 33.495 118.613 33.9435C119.154 34.4404 119.795 34.8647 120.533 35.2074C121.669 35.7349 123.037 36.0012 124.599 36.0012C124.603 36.0012 124.606 36.0012 124.609 36.0012C124.611 36.0012 124.617 36.0012 124.619 36.0012C126.181 36.0012 127.549 35.7336 128.684 35.2074C129.422 34.8647 130.064 34.4404 130.605 33.9435C131.115 33.495 131.556 32.9828 131.92 32.4056C132.634 31.278 132.996 30.1441 132.996 28.7094V11.6707H128.468H128.472ZM127.354 22.9938C126.55 23.8614 125.468 24.301 124.139 24.301C122.81 24.301 121.794 23.8602 121.007 22.9912C120.229 22.1312 119.835 21.0151 119.835 19.676C119.835 18.3369 120.229 17.2208 121.007 16.3607C121.792 15.4918 122.846 15.051 124.139 15.051C125.432 15.051 126.55 15.4905 127.354 16.3582C128.152 17.2195 128.558 18.3356 128.558 19.6773C128.558 21.0189 128.154 22.135 127.354 22.9963V22.9938Z" fill="#E20871"/>
<path d="M13.0891 10.2056C13.0802 11.523 13.0802 11.3777 13.0891 12.5818V19.462C13.0891 20.8316 12.7111 21.949 11.964 22.7848C11.213 23.6245 10.1732 24.05 8.87371 24.05C8.04005 24.05 7.31076 23.8666 6.70747 23.506C6.10418 23.1454 5.63453 22.6702 5.31252 22.093C5.04396 21.6127 4.90141 21.1629 4.84923 20.6354C4.78305 19.9678 4.77032 19.3205 4.81105 18.7115H0C0 19.3613 0 20.2124 0.00127276 20.3335V20.3487C0.0254553 21.8254 0.402193 23.1862 1.12003 24.3966C1.84423 25.6172 2.88281 26.5957 4.20521 27.3041C5.53143 28.0138 7.10075 28.3731 8.87116 28.3731C10.6416 28.3731 12.2593 28.0036 13.6224 27.2761C14.9817 26.5498 16.047 25.5013 16.7903 24.1609C17.5361 22.8167 17.9129 21.2368 17.9129 19.4632V9.15951C17.9434 6.85337 17.9765 5.00336 17.9905 4.31406L18.0643 0.129883C13.8158 1.69704 10.4659 2.88451 6.55346 3.79168V8.47531L13.0878 6.61893V10.2056H13.0891Z" fill="#3E3A39"/>
</g>
<defs>
<clipPath id="clip0_49_414">
<rect width="133" height="36" fill="white"/>
</clipPath>
</defs>
</svg>
