<svg xmlns="http://www.w3.org/2000/svg" viewBox="0 0 32 32">
  <!-- 핑크 배경 -->
  <rect width="32" height="32" rx="7" fill="#E20871"/>

  <!-- 크라운/스파크 3개 삼각형 (흰색) -->
  <!-- scale=1.5 → 약 19px wide, 9px tall / 수평 중앙 정렬, y=4 시작 -->
  <g transform="translate(-52.38, 4) scale(1.5)" fill="white">
    <path d="M45.5882 5.16397L47.3268 0H43.8496L45.5882 5.16397Z"/>
    <path d="M43.8495 6.024L41.8653 0.949219L39.2026 3.18656L43.8495 6.024Z"/>
    <path d="M47.3267 6.024L49.3109 0.949219L51.9735 3.18656L47.3267 6.024Z"/>
  </g>

  <!-- J 자형 (흰색) -->
  <!-- scale=0.635, tx=6: J 세로 획 중심이 x≈16에 위치 (시각적 중앙) -->
  <g transform="translate(6, 13) scale(0.635)" fill="white">
    <path d="M13.0891 10.2056C13.0802 11.523 13.0802 11.3777 13.0891 12.5818V19.462C13.0891 20.8316 12.7111 21.949 11.964 22.7848C11.213 23.6245 10.1732 24.05 8.87371 24.05C8.04005 24.05 7.31076 23.8666 6.70747 23.506C6.10418 23.1454 5.63453 22.6702 5.31252 22.093C5.04396 21.6127 4.90141 21.1629 4.84923 20.6354C4.78305 19.9678 4.77032 19.3205 4.81105 18.7115H0C0 19.3613 0 20.2124 0.00127276 20.3335V20.3487C0.0254553 21.8254 0.402193 23.1862 1.12003 24.3966C1.84423 25.6172 2.88281 26.5957 4.20521 27.3041C5.53143 28.0138 7.10075 28.3731 8.87116 28.3731C10.6416 28.3731 12.2593 28.0036 13.6224 27.2761C14.9817 26.5498 16.047 25.5013 16.7903 24.1609C17.5361 22.8167 17.9129 21.2368 17.9129 19.4632V9.15951C17.9434 6.85337 17.9765 5.00336 17.9905 4.31406L18.0643 0.129883C13.8158 1.69704 10.4659 2.88451 6.55346 3.79168V8.47531L13.0878 6.61893V10.2056H13.0891Z"/>
  </g>
</svg>
